<svg class="nc-icon outline" xmlns="http://www.w3.org/2000/svg" xmlns:xlink="http://www.w3.org/1999/xlink" x="0px" y="0px" width="48px" height="48px" viewBox="0 0 48 48"><g transform="translate(0, 0)">
<path data-cap="butt" data-color="color-2" fill="none" stroke="#444444" stroke-width="4" stroke-miterlimit="10" d="M22.6,33.1L33.4,44
	c2.8,2.8,7.2,2.8,10,0l0,0c2.8-2.8,2.8-7.2,0-10l-10-10" stroke-linejoin="round" stroke-linecap="round"></path>
<line data-cap="butt" data-color="color-2" fill="none" stroke="#444444" stroke-width="4" stroke-miterlimit="10" x1="19.6" y1="20.1" x2="13.1" y2="13.6" stroke-linejoin="round" stroke-linecap="round"></line>
<path fill="none" stroke="#444444" stroke-width="4" stroke-linecap="round" stroke-miterlimit="10" d="M44.9,9.6L39,15.5l-7.1-7.1
	l5.9-5.9C36.5,2.1,35,1.9,33.5,2c-5.6,0.5-10.1,5.5-10,11.1c0,1.1,0.2,2.2,0.5,3.2l-19.2,17c-2.9,2.5-3,7-0.3,9.7l0,0
	c2.7,2.7,7.1,2.6,9.7-0.3l17-19.2c1.7,0.5,3.6,0.7,5.6,0.3c4-0.8,7.3-3.8,8.4-7.7C45.7,13.7,45.5,11.5,44.9,9.6z" stroke-linejoin="round"></path>
<polygon data-color="color-2" fill="none" stroke="#444444" stroke-width="4" stroke-linecap="round" stroke-miterlimit="10" points="
	8.8,15 13.1,13.6 14.5,9.4 8.8,3.7 3.2,9.4 " stroke-linejoin="round"></polygon>
<line data-color="color-2" fill="none" stroke="#444444" stroke-width="4" stroke-linecap="round" stroke-miterlimit="10" x1="33.4" y1="34" x2="37.4" y2="38" stroke-linejoin="round"></line>
</g></svg>